<svg width="18" height="18" fill="none" xmlns="http://www.w3.org/2000/svg"><path fill-rule="evenodd" clip-rule="evenodd" d="M13.061 10.787c-.223-.112-1.319-.65-1.523-.726-.204-.074-.353-.11-.502.113-.148.222-.575.724-.705.873-.13.15-.26.167-.483.056-.223-.112-.941-.347-1.792-1.106-.662-.591-1.11-1.32-1.24-1.544-.13-.223-.014-.344.098-.455.1-.1.222-.26.334-.39.112-.13.148-.223.223-.373.075-.148.037-.278-.019-.39-.056-.111-.501-1.209-.687-1.655-.18-.434-.364-.375-.501-.382a9.642 9.642 0 0 0-.428-.008.817.817 0 0 0-.594.28c-.204.222-.78.761-.78 1.858s.799 2.157.91 2.306c.112.148 1.572 2.4 3.807 3.365.533.23.947.367 1.27.469.535.17 1.02.146 1.405.088.427-.063 1.318-.539 1.504-1.06.185-.52.185-.966.13-1.06-.056-.092-.204-.148-.428-.26h.001Zm-4.066 5.552h-.003a7.402 7.402 0 0 1-3.774-1.034l-.27-.16-2.807.736.75-2.736-.177-.28A7.396 7.396 0 0 1 1.581 8.92c.002-4.088 3.327-7.413 7.417-7.413a7.36 7.36 0 0 1 5.24 2.173 7.37 7.37 0 0 1 2.17 5.245c-.002 4.088-3.327 7.414-7.413 7.414Zm6.309-13.723A8.861 8.861 0 0 0 8.994 0C4.079 0 .077 4.001.075 8.92c0 1.571.41 3.106 1.19 4.458L0 18l4.728-1.24a8.912 8.912 0 0 0 4.263 1.086h.004c4.915 0 8.917-4.002 8.919-8.92a8.864 8.864 0 0 0-2.61-6.31Z" fill="#fff"/></svg>